<svg xmlns="http://www.w3.org/2000/svg" width="48" height="48" viewBox="0 0 50 50"><path d="M35.082 44.195H9.844c-.857 0-1.53-.768-1.53-1.705V6.27c0-.936.672-1.703 1.53-1.703h25.238c.84 0 1.53.767 1.53 1.704v10.876c0 .938-.69 1.706-1.53 1.706-.857 0-1.53-.767-1.53-1.705v-9.17H11.375v32.81h22.18V28.39c0-.954.776-1.28 1.634-1.28.84 0 1.423-1.053 1.423-.096V42.49c0 .936-.69 1.703-1.53 1.703z"></path><path d="M20.578 5.317l-.186.222.186.203h10.324l.197-.204-.198-.22H20.578zm10.324.657l-10.324.212c-1.79.036-3.244 1.348-3.244-.647 0-2.013 1.458-.775 3.244-.665l10.324.635c1.787.11 3.258-1.983 3.258.03 0 1.994-1.47.397-3.258.434zm-5.782 24.86l2.66.39 15.6-11.86-2.003-3.29-15.6 11.863-.658 2.896zm3.043 3.87l-.2-.018-4.942-.717c-.44-.05-.822-.326-1.07-.718-.243-.41-.32-.904-.21-1.38l1.205-5.386c.094-.41.306-.77.614-1.007l17.344-13.175c.352-.257.75-.358 1.15-.275.412.087.747.342.992.72l3.718 6.097c.228.375.32.836.245 1.28-.08.44-.307.834-.644 1.09L29.02 34.393c-.244.204-.55.307-.855.307z"></path><path d="M26.987 30.525c-.244 0-.49-.12-.628-.358-.246-.393-.154-.92.2-1.192L40.095 18.68c.35-.256.826-.155 1.07.222.23.39.137.92-.2 1.192l-13.55 10.294c-.14.103-.276.137-.43.137z"></path><path d="M23.195 15.87h-8.337c-.49 0-.785-.374-.785-.84 0-.374.294-.747.785-.747h8.337c.49 0 .883.372.883.745 0 .467-.392.84-.883.84z"></path><path d="M26.826 19.92l-11.968.054c-.49.002-.785-.374-.785-.84 0-.373.294-.748.785-.746l11.968.053c.393.003.732.374.732.747 0 .467-.34.732-.732.734z"></path><path d="M22.483 23.93l-7.625.054c-.49.003-.785-.278-.785-.745 0-.374.294-.744.785-.747l7.678-.053c.393-.003.573.372.573.745 0 .467-.234.743-.627.746z"></path><path d="M18.922 28.09h-4.064c-.49 0-.785-.28-.785-.746 0-.373.294-.746.785-.746h4.04c.49 0 .625.48.625.852 0 .467-.115.655-.605.655z"></path></svg>
