<svg xmlns="http://www.w3.org/2000/svg" width="48" height="48" viewBox="0 0 50 50"><path d="M16.342 4.876c-2.564 0-4.646 2.926-4.646 6.535 0 3.587 2.082 6.51 4.646 6.51 2.56 0 4.643-2.923 4.643-6.51 0-3.608-2.082-6.534-4.643-6.534zm0 17.616c-4.752 0-8.614-4.983-8.614-11.08C7.728 5.286 11.59.307 16.342.307c4.748 0 8.608 4.98 8.608 11.103 0 6.1-3.86 11.082-8.608 11.082M5.267 42.984H27.09l.43-7.358c.09-1.46-1.1-3.792-2.703-4.478-5.536-2.284-11.726-2.284-17.29 0-1.594.686-2.782 3.017-2.698 4.478l.437 7.358zm23.674 4.568H3.413c-1.04 0-1.904-.935-1.977-2.125L.87 35.922c-.21-3.652 2.164-7.718 5.298-9.068 6.47-2.652 13.576-2.652 20 0 3.16 1.35 5.532 5.416 5.313 9.093l-.562 9.48c-.068 1.19-.938 2.125-1.977 2.125M44.383 47.552H34.217c-1.095 0-1.982-1.028-1.982-2.284 0-1.256.887-2.284 1.982-2.284h8.313l.363-6.055c.067-1.167-.917-3.04-2.166-3.566-2.218-.913-4.563-1.393-6.95-1.44-1.093-.022-1.97-1.072-1.948-2.327.018-1.26.916-2.31 2.014-2.24 2.82.046 5.593.616 8.238 1.713 2.834 1.21 4.965 4.867 4.767 8.155l-.49 8.202c-.07 1.19-.936 2.125-1.977 2.125M36.56 11.18c-1.76 0-3.186 2.057-3.186 4.57 0 2.535 1.427 4.59 3.185 4.59 1.754 0 3.182-2.055 3.182-4.59 0-2.513-1.428-4.57-3.183-4.57zm0 13.733c-3.944 0-7.154-4.113-7.154-9.162 0-5.025 3.21-9.138 7.153-9.138 3.942 0 7.15 4.113 7.15 9.14 0 5.048-3.208 9.16-7.15 9.16"></path></svg>
