<svg xmlns="http://www.w3.org/2000/svg" width="48" height="48" viewBox="0 0 50 50"><path d="M92.1 29.696h-5.846c-.646 0-1.17-.842-1.17-1.872v-7.957c0-1.05.524-1.872 1.17-1.872.646 0 1.17.822 1.17 1.872v7.26h3.597l-.09-9.132c-.01-1.047.524-1.872 1.17-1.872.647 0 1.17.825 1.17 1.872v9.83c0 1.03-.523 1.87-1.17 1.87"></path><path d="M78.704 5.418c.446 0 .86.31 1.066.796.206.487.172 1.077-.085 1.534-.52.9-.795 1.962-.795 3.055 0 2.964 1.954 5.37 4.355 5.37 1.468 0 2.83-.914 3.64-2.434.2-.385.52-.62.878-.665.363-.044.715.103.97.427.834 1.018 2.106 1.342 3.236.708.48-.266 1.05-.103 1.4.384.553.797 1.346 1.254 2.172 1.254 1.6 0 2.9-1.608 2.9-3.57 0-.722-.177-1.43-.52-2.037-.184-.323-.252-.737-.19-1.136.067-.382.26-.736.533-.943 1.272-1.002 2.028-2.684 2.028-4.513 0-1.387-.434-2.7-1.222-3.703-.308-.4-.413-.974-.27-1.492.117-.44.17-.797.17-1.15 0-1.977-1.3-3.57-2.9-3.57-.356 0-.718.088-1.07.265-.5.237-1.072.044-1.397-.47-.56-.903-1.395-1.418-2.29-1.418-1.175 0-2.227.854-2.678 2.197-.156.458-.49.796-.892.885-.394.09-.804-.074-1.085-.427-.836-1.092-1.953-1.682-3.15-1.682-2.023 0-3.76 1.696-4.224 4.13-.114.605-.52 1.048-1.02 1.123-1.452.22-2.548 1.74-2.548 3.525 0 1.95 1.276 3.527 2.852 3.572l.136-.015zm4.54 13.707c-3.72 0-6.75-3.734-6.75-8.322 0-.96.133-1.89.393-2.79-2.075-.885-3.568-3.304-3.568-6.152 0-2.935 1.608-5.473 3.853-6.255.955-3.26 3.46-5.474 6.335-5.474 1.348 0 2.628.49 3.724 1.39.987-1.476 2.47-2.36 4.08-2.36 1.362 0 2.642.633 3.62 1.784.376-.105.757-.163 1.138-.163 2.924 0 5.3 2.923 5.3 6.523 0 .413-.036.825-.11 1.254.928 1.445 1.432 3.23 1.432 5.09 0 2.374-.823 4.602-2.244 6.166.26.783.392 1.61.392 2.465 0 3.584-2.376 6.52-5.298 6.52-1.24 0-2.436-.56-3.383-1.533-1.388.473-2.873.19-4.072-.678-1.262 1.608-2.997 2.538-4.843 2.538"></path><path d="M29.418 47.897h-8.33c-.72 0-1.302-.584-1.302-1.302v-8.21h-4.173v8.21c0 .718-.582 1.302-1.302 1.302H5.984c-.72 0-1.302-.584-1.302-1.302V33.07c0-.72.583-1.3 1.303-1.3s1.302.58 1.302 1.3v12.223h5.724v-8.208c0-.72.58-1.302 1.3-1.302h6.778c.72 0 1.303.582 1.303 1.302v8.208h5.725V33.07c0-.72.582-1.3 1.303-1.3.718 0 1.302.58 1.302 1.3v13.525c0 .718-.584 1.302-1.302 1.302"></path><path d="M36.54 3c-1.61 0-3.092.886-4.08 2.36-1.095-.9-2.377-1.39-3.725-1.39-2.874 0-5.378 2.216-6.333 5.476-2.245.783-3.855 3.32-3.855 6.256 0 2.848 1.493 5.267 3.568 6.153-.2.69-.3 1.404-.348 2.13l2.442 1.747c-.06-.35-.09-.715-.09-1.088 0-1.093.272-2.154.793-3.054.256-.457.29-1.047.085-1.534-.206-.487-.62-.797-1.066-.797l-.136.013c-1.577-.044-2.853-1.623-2.853-3.57 0-1.786 1.097-3.305 2.55-3.526.498-.075.904-.518 1.02-1.124.463-2.433 2.2-4.128 4.222-4.128 1.197 0 2.314.59 3.15 1.683.28.352.692.514 1.086.425.402-.088.737-.426.892-.885.452-1.342 1.504-2.197 2.678-2.197.896 0 1.73.515 2.29 1.417.326.515.897.71 1.396.472.353-.178.716-.268 1.072-.268 1.6 0 2.902 1.595 2.902 3.573 0 .352-.056.71-.173 1.15-.143.517-.037 1.092.272 1.49.788 1.005 1.22 2.317 1.22 3.704 0 1.828-.754 3.51-2.026 4.51-.273.208-.468.563-.533.945-.063.4.007.813.192 1.137.342.606.52 1.314.52 2.037 0 1.96-1.303 3.57-2.903 3.57-.826 0-1.62-.457-2.173-1.254-.35-.487-.918-.65-1.4-.384-1.13.634-2.403.31-3.235-.708-.257-.324-.607-.472-.97-.427-.36.044-.68.278-.88.663-.555 1.04-1.372 1.79-2.302 2.162l2.47 1.768c.37-.314.72-.677 1.037-1.082 1.2.87 2.682 1.153 4.07.68.946.974 2.14 1.532 3.382 1.532 2.922 0 5.3-2.937 5.3-6.52 0-.856-.133-1.682-.393-2.465 1.42-1.564 2.242-3.792 2.242-6.166 0-1.86-.504-3.647-1.432-5.092.074-.428.11-.84.11-1.253 0-3.6-2.376-6.523-5.3-6.523-.38 0-.76.06-1.14.163C39.184 3.635 37.903 3 36.54 3z"></path><path d="M35.864 30.208c-.647 0-1.18.825-1.17 1.872l.015 1.513.228.165c.587.42.675 1.684.256 2.268-.134.19-.265.462-.46.553l.05 4.632h-2.99v2.57h4.07c.646 0 1.168-.843 1.168-1.872v-9.83c0-1.048-.522-1.872-1.168-1.872z"></path><path d="M33.34 36.262c-.262 0-.526-.078-.755-.243L17.7 25.36 2.817 36.02c-.583.418-1.4.283-1.82-.302-.416-.584-.28-1.397.304-1.816L16.943 22.7c.452-.323 1.063-.323 1.516 0L34.1 33.902c.587.42.72 1.232.302 1.816-.254.356-.654.544-1.062.544"></path></svg>
