<svg xmlns="http://www.w3.org/2000/svg" width="48" height="48" viewBox="0 0 50 50"><path d="M19.734 29.528c.63 6.155 2.604 9.233 5.972 9.233 1.257 0 2.38-.293 3.457-.884.988-.62 2.02-2.028 2.964-4.226.628-1.438 1.167-2.323 1.616-2.684.494-.358.943-.523 1.482-.523.988 0 1.84.295 2.425.886.54.588.853 1.406.853 2.486 0 2.488-1.257 4.848-3.727 6.978C32.262 42.92 29.298 44 25.75 44c-3.322 0-6.196-1.21-8.665-3.604-2.47-2.39-3.95-6.02-4.445-10.868H9.362c-.314 0-.45-.234-.45-.657 0-.422.136-.98.495-1.633.314-.657.583-.953.808-.953h2.245v-.952c0-.755.045-1.83.09-3.243H9.362c-.314 0-.45-.228-.45-.653 0-.46.136-.983.495-1.67.314-.622.583-.953.808-.953h2.604c1.122-8.94 5.387-13.428 12.705-13.428 3.278 0 6.017.853 8.397 2.524 2.335 1.64 3.502 3.7 3.502 6.192 0 .85-.27 1.537-.808 2.126-.584.59-1.258.885-2.02.885-.854 0-1.527-.227-1.977-.688-.36-.424-.764-1.113-1.168-2.063-.494-1.21-1.078-2.127-1.796-2.783-.674-.622-1.84-.953-3.502-.953-1.93 0-3.368.656-4.4 1.966-.988 1.344-1.707 3.408-1.976 6.222h8.35c.316 0 .495.197.495.656 0 .493-.134 1.015-.45 1.673-.358.62-.627.946-.852.946h-7.767v4.193h8.576c.314 0 .493.197.493.62 0 .493-.134 1.05-.45 1.672-.358.652-.627.953-.852.953h-7.587z"></path></svg>
