<svg xmlns="http://www.w3.org/2000/svg" width="48" height="48" viewBox="0 0 50 50"><path d="M32.1 2.466c-.767.032-1.444.713-1.58 1.674l-.553 3.99c-.157 1.1.446 2.156 1.35 2.342l.28.038c.793 0 1.494-.69 1.63-1.685l.555-3.99c.156-1.1-.45-2.16-1.35-2.342-.113-.023-.224-.03-.334-.025zm-8.883.877c-.213-.01-.433.03-.645.128-.86.388-1.3 1.545-.983 2.603l1.135 3.807c.248.814.88 1.326 1.553 1.326.19 0 .382-.044.57-.128.86-.386 1.298-1.565.984-2.624l-1.137-3.787c-.24-.794-.833-1.292-1.478-1.326zm16.948 3.904c-.422.05-.828.295-1.12.722l-2.106 3.11c-.587.86-.494 2.14.21 2.853.31.325.687.49 1.057.49.475 0 .947-.27 1.272-.735l2.106-3.114c.587-.854.488-2.14-.21-2.87-.354-.357-.79-.506-1.21-.46zM15.542 9.652c-.422.045-.828.29-1.12.72-.585.875-.488 2.158.215 2.87l2.526 2.586c.31.324.687.467 1.06.467.474 0 .945-.243 1.273-.732.585-.852.488-2.136-.215-2.85l-2.53-2.587c-.35-.368-.787-.52-1.208-.474zm13.527 3.575c-.332-.003-.667.017-1 .053-2.68.305-5.102 1.875-6.828 4.418-.035.052-.06.107-.088.158-1.15-.56-2.387-.894-3.687-.894-4.835 0-8.937 4.316-9.855 9.98C3.396 27.08 0 31.335 0 36.548c0 4.212 2.29 8 5.53 9.2.697.285 1.416.43 2.134.43h20.758c.805 0 1.61-.184 2.298-.512 3.702-1.425 6.193-5.598 6.193-10.38 0-.62-.053-1.223-.133-1.814 1.687-2.53 2.486-5.71 2.24-8.978-.242-3.3-1.518-6.296-3.586-8.41-1.81-1.854-4.044-2.85-6.365-2.864zm16.452 3.17c-.216-.012-.434.026-.65.123l-3.088 1.403c-.862.386-1.293 1.548-.982 2.605.25.835.876 1.345 1.553 1.345.19 0 .382-.04.57-.123l3.09-1.404c.855-.386 1.294-1.565.977-2.624-.236-.797-.828-1.292-1.472-1.326zm-16.486.89c1.548.003 3.064.69 4.282 1.938 2.35 2.403 3.035 6.362 1.89 9.664-1.61-2.718-4.21-4.497-7.144-4.497-.446 0-.892.064-1.337.148-.605-1.783-1.538-3.322-2.687-4.548 1.14-1.512 2.653-2.47 4.33-2.663.223-.03.444-.042.666-.042zm-11.57 3.75c3.143 0 5.838 2.65 6.56 6.414l.424 2.218 1.75-.773c.606-.284 1.234-.43 1.862-.43 3.054 0 5.54 3.076 5.54 6.824 0 2.99-1.556 5.596-3.96 6.534-.4.183-.814.284-1.22.284H7.664c-.37 0-.74-.082-1.145-.242-1.888-.694-3.21-2.89-3.21-5.315 0-3.053 2.023-5.534 4.51-5.534.3 0 .61.04.924.098l1.942.49.044-2.444c.07-4.478 3.093-8.122 6.735-8.122zm25.407 5.757c-.768.032-1.446.715-1.583 1.695-.158 1.097.446 2.158 1.35 2.34l3.234.69.285.04c.787 0 1.49-.71 1.63-1.69.157-1.118-.454-2.175-1.352-2.36l-3.232-.693c-.113-.023-.224-.03-.333-.025zM39.6 34.94c-.423.05-.83.298-1.12.735-.588.852-.49 2.14.21 2.87l2.525 2.59c.31.306.686.464 1.055.464.476 0 .948-.263 1.273-.733.586-.876.493-2.16-.212-2.87l-2.523-2.586c-.35-.367-.786-.518-1.208-.47z"></path></svg>
